<svg id="Calque_1" data-name="Calque 1" xmlns="http://www.w3.org/2000/svg" viewBox="0 0 167.15 167.15"><defs><style>.cls-1{fill:#6fbb7c;stroke:#1d1d1b;stroke-miterlimit:10;opacity:0.44;}.cls-2{font-size:31px;fill:#fff;font-family:Enchanting-Celebrations, Enchanting Celebrations;}</style></defs><title>logo1</title><path class="cls-1" d="M323.6,224.6l-21.67-22.19a1.71,1.71,0,0,0-2.91,1.45l4.72,30.66a1.71,1.71,0,0,1-3.22,1l-13.75-27.8a1.71,1.71,0,0,0-3.22.48l-5,30.62a1.71,1.71,0,0,1-3.38,0l-4.49-30.69a1.71,1.71,0,0,0-3.21-.54l-14.2,27.58a1.71,1.71,0,0,1-3.2-1.07l5.21-30.58a1.71,1.71,0,0,0-2.89-1.5l-22,21.84a1.71,1.71,0,0,1-2.72-2l14.41-27.47a1.71,1.71,0,0,0-2.28-2.32l-27.7,14a1.71,1.71,0,0,1-2-2.75l22.19-21.67a1.71,1.71,0,0,0-1.45-2.91l-30.66,4.72a1.71,1.71,0,0,1-1-3.22L227,166.43a1.71,1.71,0,0,0-.48-3.22l-30.62-5a1.71,1.71,0,0,1,0-3.38l30.69-4.49a1.71,1.71,0,0,0,.54-3.21L199.57,133a1.71,1.71,0,0,1,1.07-3.2L231.22,135a1.71,1.71,0,0,0,1.5-2.89l-21.84-22a1.71,1.71,0,0,1,2-2.72l27.47,14.41a1.71,1.71,0,0,0,2.32-2.28l-14-27.7a1.71,1.71,0,0,1,2.75-2L253.13,112a1.71,1.71,0,0,0,2.91-1.45l-4.72-30.66a1.71,1.71,0,0,1,3.22-1l13.75,27.8a1.71,1.71,0,0,0,3.22-.48l5-30.62a1.71,1.71,0,0,1,3.38,0l4.49,30.69a1.71,1.71,0,0,0,3.21.54l14.2-27.58a1.71,1.71,0,0,1,3.2,1.07l-5.21,30.58a1.71,1.71,0,0,0,2.89,1.5l22-21.84a1.71,1.71,0,0,1,2.72,2L313,120a1.71,1.71,0,0,0,2.28,2.32l27.7-14a1.71,1.71,0,0,1,2,2.75L322.75,132.8a1.71,1.71,0,0,0,1.45,2.91L354.86,131a1.71,1.71,0,0,1,1,3.22L328.07,148a1.71,1.71,0,0,0,.48,3.22l30.62,5a1.71,1.71,0,0,1,0,3.38L328.45,164a1.71,1.71,0,0,0-.54,3.21l27.58,14.2a1.71,1.71,0,0,1-1.07,3.2l-30.58-5.21a1.71,1.71,0,0,0-1.5,2.89l21.84,22a1.71,1.71,0,0,1-2,2.72l-27.47-14.41a1.71,1.71,0,0,0-2.32,2.28l14,27.7A1.71,1.71,0,0,1,323.6,224.6Z" transform="translate(-193.96 -73.63)"/><text class="cls-2" transform="translate(43.7 92.29)">Philaé</text></svg>